
<svg xmlns="http://www.w3.org/2000/svg" version="1.1" xmlns:xlink="http://www.w3.org/1999/xlink" preserveAspectRatio="none" x="0px" y="0px" width="550px" height="400px" viewBox="0 0 550 400">
<defs>
<g id="Layer0_0_FILL">
<path fill="#000000" stroke="none" d="
M 517.5 58.05
Q 517.25 57.65 517 57.3 516.65 56.9 516.25 56.55 515.9 56.15 515.5 55.8 515 55.4 514.5 55.05 513.9 54.65 513.25 54.3 512.5 53.9 511.75 53.55 510.9 53.3 510 53.05 508.9 52.9 507.75 52.8 507.75 52.9 507.75 53.05 506.65 53.05 505.5 53.05 504.65 53.3 503.75 53.55 502.9 53.9 502 54.3 501.4 54.65 500.75 55.05 500.4 55.4 500 55.8 499.65 56.15 499.25 56.55 498.9 56.9 498.5 57.3 498.25 57.65 498 58.05 497.75 58.4 497.5 58.8 497.25 59.15 497 59.55 496.9 59.9 496.75 60.3 496.65 60.65 496.5 61.05 496.4 61.4 496.25 61.8 496.15 62.15 496 62.55 496 62.9 496 63.3 496 63.65 496 64.05 495.9 64.4 495.75 64.8 495.75 65.15 495.75 65.55 495.75 65.9 495.75 66.3 495.75 66.65 495.75 67.05 495.75 67.4 495.75 67.8 495.75 68.15 495.75 68.55 495.75 68.9 495.75 69.3 495.75 69.65 495.75 70.05 495.75 70.4 495.75 70.8 495.75 71.15 495.75 71.55 495.75 71.9 495.75 72.3 495.75 72.65 495.75 73.05 495.75 73.4 495.75 73.8 495.75 74.15 495.75 74.55 495.75 74.9 495.75 75.3 495.75 75.65 495.75 76.05 495.75 76.4 495.75 76.8 495.75 77.15 495.75 77.55 495.75 77.9 495.75 78.3 495.75 78.65 495.75 79.05 495.75 79.4 495.75 79.8 495.75 80.15 495.75 80.55 495.75 80.9 495.75 81.3 495.75 81.65 495.75 82.05 495.75 82.4 495.75 82.8 495.75 83.15 495.75 83.55 495.75 83.9 495.75 84.3 495.75 84.65 495.75 85.05 495.75 85.4 495.75 85.8 495.75 86.15 495.75 86.55 495.75 86.9 495.75 87.3 495.75 87.65 495.75 88.05 495.75 88.4 495.75 88.8 495.75 89.15 495.75 89.55 495.75 89.9 495.75 90.3 495.75 90.65 495.75 91.05 495.75 91.4 495.75 91.8 495.75 92.15 495.75 92.55 495.75 92.9 495.75 93.3 495.75 93.65 495.75 94.05 495.75 94.4 495.75 94.8 495.75 95.15 495.75 95.55 495.75 95.9 495.75 96.3 495.75 96.65 495.75 97.05 495.75 97.4 495.75 97.8 495.75 98.15 495.75 98.55 495.75 98.9 495.75 99.3 495.75 99.65 495.75 100.05 495.75 100.4 495.75 100.8 495.75 101.15 495.75 101.55 495.75 101.9 495.75 102.3 495.75 102.65 495.75 103.05 495.75 103.4 495.75 103.8 495.75 104.15 495.75 104.55 495.75 104.9 495.75 105.3 495.75 105.65 495.75 106.05 495.75 106.4 495.75 106.8 495.75 107.15 495.75 107.55 495.75 107.9 495.75 108.3 495.75 108.65 495.75 109.05 495.75 109.4 495.75 109.8 495.75 110.15 495.75 110.55 495.75 110.9 495.75 111.3 495.75 111.65 495.75 112.05 495.75 112.4 495.75 112.8 495.75 113.15 495.75 113.55 495.75 113.9 495.75 114.3 495.75 114.65 495.75 115.05 495.75 115.4 495.75 115.8 495.75 116.15 495.75 116.55 495.75 116.9 495.75 117.3 495.75 117.65 495.75 118.05 495.75 118.4 495.75 118.8 495.75 119.15 495.75 119.55 495.75 119.9 495.75 120.3 495.75 120.65 495.75 121.05 495.75 121.4 495.75 121.8 495.75 122.15 495.75 122.55 495.75 122.9 495.75 123.3 495.75 123.65 495.75 124.05 495.75 124.4 495.75 124.8 495.75 125.15 495.75 125.55 495.75 125.9 495.75 126.3 495.75 126.65 495.75 127.05 495.75 127.4 495.75 127.8 495.75 128.15 495.75 128.55 495.75 128.9 495.75 129.3 495.75 129.65 495.75 130.05 495.75 130.4 495.75 130.8 495.75 131.15 495.75 131.55 495.75 131.9 495.75 132.3 495.75 132.65 495.75 133.05 495.75 133.4 495.75 133.8 495.75 134.15 495.75 134.55 495.75 134.9 495.75 135.3 495.75 135.65 495.75 136.05 495.75 136.4 495.75 136.8 495.75 137.15 495.75 137.55 495.75 137.9 495.75 138.3 495.75 138.65 495.75 139.05 495.75 139.4 495.75 139.8 495.75 140.15 495.75 140.55 495.75 140.9 495.75 141.3 495.75 141.65 495.75 142.05 495.75 142.4 495.75 142.8 495.75 143.15 495.75 143.55 495.75 143.9 495.75 144.3 495.75 144.65 495.75 145.05 495.75 145.4 495.75 145.8 495.75 146.15 495.75 146.55 495.75 146.9 495.75 147.3 495.75 147.65 495.75 148.05 495.75 148.4 495.75 148.8 495.75 149.15 495.75 149.55 495.75 149.9 495.75 150.3 495.75 150.65 495.75 151.05 495.75 151.4 495.75 151.8 495.75 152.15 495.75 152.55 495.75 152.9 495.75 153.3 495.75 153.65 495.75 154.05 495.75 154.4 495.75 154.8 495.75 155.15 495.75 155.55 495.75 155.9 495.75 156.3 495.75 156.65 495.75 157.05 495.75 157.4 495.75 157.8 495.75 158.15 495.75 158.55 495.75 158.9 495.75 159.3 495.75 159.65 495.75 160.05 495.75 160.4 495.75 160.8 495.75 161.15 495.75 161.55 495.75 161.9 495.75 162.3 495.75 162.65 495.75 163.05 495.75 163.4 495.75 163.8 495.75 164.15 495.75 164.55 495.75 164.9 495.75 165.3 495.75 165.65 495.75 166.05 495.75 166.4 495.75 166.8 495.75 167.15 495.75 167.55 495.75 167.9 495.75 168.3 495.75 168.65 495.75 169.05 495.75 169.4 495.75 169.8 495.75 170.15 495.75 170.55 495.75 170.9 495.75 171.3 495.75 171.65 495.75 172.05 495.75 172.4 495.75 172.8 495.75 173.15 495.75 173.55 495.75 173.9 495.75 174.3 495.75 174.65 495.75 175.05 495.75 175.4 495.75 175.8 495.75 176.15 495.75 176.55 495.75 176.9 495.75 177.3 495.75 177.65 495.75 178.05 495.75 178.4 495.75 178.8 495.75 179.15 495.75 179.55 495.75 179.9 495.75 180.3 495.75 180.65 495.75 181.05 495.75 181.4 495.75 181.8 495.75 182.15 495.75 182.55 495.75 182.9 495.75 183.3 495.75 183.65 495.75 184.05 495.75 184.4 495.75 184.8 495.75 185.15 495.75 185.55 495.75 185.9 495.75 186.3 495.75 186.65 495.75 187.05 495.75 187.4 495.75 187.8 495.75 188.15 495.75 188.55 495.75 188.9 495.75 189.3 495.75 189.65 495.75 190.05 495.75 190.4 495.75 190.8 495.75 191.15 495.75 191.55 495.75 191.9 495.75 192.3 495.75 192.65 495.75 193.05 495.75 193.4 495.75 193.8 495.75 194.15 495.75 194.55 495.75 194.9 495.75 195.3 495.75 195.65 495.75 196.05 495.75 196.4 495.75 196.8 495.75 197.15 495.75 197.55 495.75 197.9 495.75 198.3 495.75 198.65 495.75 199.05 495.75 199.4 495.75 199.8 495.75 200.15 495.75 200.55 495.75 200.9 495.75 201.3 495.75 201.65 495.75 202.05 495.75 202.4 495.75 202.8 495.75 203.15 495.75 203.55 495.75 203.9 495.75 204.3 495.75 204.65 495.75 205.05 495.75 205.4 495.75 205.8 495.75 206.15 495.75 206.55 495.75 206.9 495.75 207.3 495.75 207.65 495.75 208.05 495.75 208.4 495.75 208.8 495.75 209.15 495.75 209.55 495.75 209.9 495.75 210.3 495.75 210.65 495.75 211.05 495.75 211.4 495.75 211.8 495.75 212.15 495.75 212.55 495.75 212.9 495.75 213.3 495.75 213.65 495.75 214.05 495.75 214.4 495.75 214.8 495.75 215.15 495.75 215.55 495.75 215.9 495.75 216.3 495.75 216.65 495.75 217.05 495.75 217.4 495.75 217.8 495.75 218.15 495.75 218.55 495.75 218.9 495.75 219.3 495.75 219.65 495.75 220.05 495.75 220.4 495.75 220.8 495.75 221.15 495.75 221.55 495.75 221.9 495.75 222.3 495.75 222.65 495.75 223.05 495.75 223.4 495.75 223.8 495.75 224.15 495.75 224.55 495.75 224.9 495.75 225.3 495.75 225.65 495.75 226.05 495.75 226.4 495.75 226.8 495.75 227.15 495.75 227.55 495.75 227.9 495.75 228.3 495.75 228.65 495.75 229.05 495.75 229.4 495.75 229.8 495.75 230.15 495.75 230.55 495.75 230.9 495.75 231.3 495.75 231.65 495.75 232.05 495.75 232.4 495.75 232.8 495.75 233.15 495.75 233.55 495.75 233.9 495.75 234.3 495.75 234.65 495.75 235.05 495.75 235.4 495.75 235.8 495.75 236.15 495.75 236.55 495.75 236.9 495.75 237.3 495.75 237.65 495.75 238.05 495.75 238.4 495.75 238.8 495.75 239.15 495.75 239.55 495.75 239.9 495.75 240.3 495.75 240.65 495.75 241.05 495.75 241.4 495.75 241.8 495.75 242.15 495.75 242.55 495.75 242.9 495.75 243.3 495.75 243.65 495.75 244.05 495.75 244.4 495.75 244.8 495.75 245.15 495.75 245.55 495.75 245.9 495.75 246.3 495.75 246.65 495.75 247.05 495.75 247.4 495.75 247.8 495.75 248.15 495.75 248.55 495.75 248.9 495.75 249.3 495.75 249.65 495.75 250.05 495.75 250.4 495.75 250.8 495.75 251.15 495.75 251.55 495.75 251.9 495.75 252.3 495.75 252.65 495.75 253.05 495.75 253.4 495.75 253.8 495.75 254.15 495.75 254.55 495.75 254.9 495.75 255.3 495.75 255.65 495.75 256.05 495.75 256.4 495.75 256.8 495.75 257.15 495.75 257.55 495.75 257.9 495.75 258.3 495.75 258.65 495.75 259.05 495.75 259.4 495.75 259.8 495.75 260.15 495.75 260.55 495.75 260.9 495.75 261.3 495.75 261.65 495.75 262.05 495.75 262.4 495.75 262.8 495.75 263.15 495.75 263.55 495.75 263.9 495.75 264.3 495.75 264.65 495.75 265.05 495.75 265.4 495.75 265.8 495.75 266.15 495.75 266.55 495.75 266.9 495.75 267.3 495.75 267.65 495.75 268.05 495.75 268.4 495.75 268.8 495.75 269.15 495.75 269.55 495.75 269.9 495.75 270.3 495.75 270.65 495.75 271.05 495.75 271.4 495.75 271.8 495.75 272.15 495.75 272.55 495.75 272.9 495.75 273.3 495.75 273.65 495.75 274.05 495.75 274.4 495.75 274.8 495.75 275.15 495.75 275.55 495.75 275.9 495.75 276.3 495.75 276.65 495.75 277.05 495.75 277.4 495.75 277.8 495.75 278.15 495.75 278.55 495.75 278.9 495.75 279.3 495.75 279.65 495.75 280.05 495.75 280.4 495.75 280.8 495.75 281.15 495.75 281.55 495.75 281.9 495.75 282.3 495.75 282.65 495.75 283.05 495.75 283.4 495.75 283.8 495.75 284.15 495.75 284.55 495.75 284.9 495.75 285.3 495.75 285.65 495.75 286.05 495.75 286.4 495.75 286.8 495.75 287.15 495.75 287.55 495.75 287.9 495.75 288.3 495.75 288.65 495.75 289.05 495.75 289.4 495.75 289.8 495.75 290.15 495.75 290.55 495.75 290.9 495.75 291.3 495.75 291.65 495.75 292.05 495.75 292.4 495.75 292.8 495.75 293.15 495.75 293.55 495.75 293.9 495.75 294.3 495.75 294.65 495.75 295.05 495.75 295.4 495.75 295.8 495.75 296.15 495.75 296.55 495.75 296.9 495.75 297.3 495.75 297.65 495.75 298.05 495.75 298.4 495.75 298.8 495.75 299.15 495.75 299.55 495.75 299.9 495.75 300.3 495.75 300.65 495.75 301.05 495.75 301.4 495.75 301.8 495.75 302.15 495.75 302.55 495.75 302.9 495.75 303.3 495.75 303.65 495.75 304.05 495.75 304.4 495.75 304.8 495.75 305.15 495.75 305.55 495.75 305.9 495.75 306.3 495.75 306.65 495.75 307.05 495.75 307.4 495.75 307.8 495.75 308.15 495.75 308.55 495.75 308.9 495.75 309.3 495.75 309.65 495.75 310.05 495.75 310.4 495.75 310.8 495.75 311.15 495.75 311.55 495.75 311.9 495.75 312.3 495.75 312.65 495.75 313.05 495.75 313.4 495.75 313.8 495.75 314.15 495.75 314.55 495.75 314.9 495.75 315.3 495.75 315.65 495.75 316.05 495.75 316.4 495.75 316.8 495.75 317.15 495.75 317.55 495.75 317.9 495.75 318.3 495.75 318.65 495.75 319.05 495.75 319.4 495.75 319.8 495.75 320.15 495.75 320.55 495.75 320.9 495.75 321.3 495.75 321.65 495.75 322.05 495.75 322.4 495.75 322.8 495.75 323.15 495.75 323.55 495.75 323.9 495.75 324.3 495.75 324.65 495.75 325.05 495.75 325.4 495.75 325.8 495.75 326.15 495.75 326.55 495.75 326.9 495.75 327.3 495.75 327.65 495.75 328.05 495.75 328.4 495.75 328.8 495.75 329.15 495.75 329.55 495.75 329.9 495.75 330.3 495.75 330.65 495.75 331.05 495.75 331.4 495.75 331.8 495.9 332.15 496 332.55 496 332.9 496 333.3 496 333.65 496 334.05 496.15 334.4 496.25 334.8 496.4 335.15 496.5 335.55 496.65 335.9 496.75 336.25 496.9 336.65 497 337 497.25 337.4 497.5 337.75 497.75 338.15 498 338.5 498.25 338.9 498.5 339.25 498.9 339.65 499.25 340 499.65 340.4 500 340.75 500.4 341.15 500.75 341.5 501.4 341.9 502 342.25 502.9 342.65 503.75 343 504.65 343.25 505.5 343.5 506.65 343.65 507.75 343.75 508.9 343.65 510 343.5 510.9 343.25 511.75 343 512.5 342.65 513.25 342.25 513.9 341.9 514.5 341.5 515 341.15 515.5 340.75 515.9 340.4 516.25 340 516.65 339.65 517 339.25 517.25 338.9 517.5 338.5 517.75 338.15 518 337.75 518.15 337.4 518.25 337 518.5 336.65 518.75 336.25 518.9 335.9 519 335.55 519.15 335.15 519.25 334.8 519.25 334.4 519.25 334.05 519.4 333.65 519.5 333.3 519.5 332.9 519.5 332.55 519.5 332.15 519.5 331.8 519.65 331.4 519.75 331.05 519.75 330.65 519.75 330.3 519.75 329.9 519.75 329.55 519.75 329.15 519.75 328.8 519.75 328.4 519.75 328.05 519.75 327.65 519.75 327.3 519.75 326.9 519.75 326.55 519.75 326.15 519.75 325.8 519.75 325.4 519.75 325.05 519.75 324.65 519.75 324.3 519.75 323.9 519.75 323.55 519.75 323.15 519.75 322.8 519.75 322.4 519.75 322.05 519.75 321.65 519.75 321.3 519.75 320.9 519.75 320.55 519.75 320.15 519.75 319.8 519.75 319.4 519.75 319.05 519.75 318.65 519.75 318.3 519.75 317.9 519.75 317.55 519.75 317.15 519.75 316.8 519.75 316.4 519.75 316.05 519.75 315.65 519.75 315.3 519.75 314.9 519.75 314.55 519.75 314.15 519.75 313.8 519.75 313.4 519.75 313.05 519.75 312.65 519.75 312.3 519.75 311.9 519.75 311.55 519.75 311.15 519.75 310.8 519.75 310.4 519.75 310.05 519.75 309.65 519.75 309.3 519.75 308.9 519.75 308.55 519.75 308.15 519.75 307.8 519.75 307.4 519.75 307.05 519.75 306.65 519.75 306.3 519.75 305.9 519.75 305.55 519.75 305.15 519.75 304.8 519.75 304.4 519.75 304.05 519.75 303.65 519.75 303.3 519.75 302.9 519.75 302.55 519.75 302.15 519.75 301.8 519.75 301.4 519.75 301.05 519.75 300.65 519.75 300.3 519.75 299.9 519.75 299.55 519.75 299.15 519.75 298.8 519.75 298.4 519.75 298.05 519.75 297.65 519.75 297.3 519.75 296.9 519.75 296.55 519.75 296.15 519.75 295.8 519.75 295.4 519.75 295.05 519.75 294.65 519.75 294.3 519.75 293.9 519.75 293.55 519.75 293.15 519.75 292.8 519.75 292.4 519.75 292.05 519.75 291.65 519.75 291.3 519.75 290.9 519.75 290.55 519.75 290.15 519.75 289.8 519.75 289.4 519.75 289.05 519.75 288.65 519.75 288.3 519.75 287.9 519.75 287.55 519.75 287.15 519.75 286.8 519.75 286.4 519.75 286.05 519.75 285.65 519.75 285.3 519.75 284.9 519.75 284.55 519.75 284.15 519.75 283.8 519.75 283.4 519.75 283.05 519.75 282.65 519.75 282.3 519.75 281.9 519.75 281.55 519.75 281.15 519.75 280.8 519.75 280.4 519.75 280.05 519.75 279.65 519.75 279.3 519.75 278.9 519.75 278.55 519.75 278.15 519.75 277.8 519.75 277.4 519.75 277.05 519.75 276.65 519.75 276.3 519.75 275.9 519.75 275.55 519.75 275.15 519.75 274.8 519.75 274.4 519.75 274.05 519.75 273.65 519.75 273.3 519.75 272.9 519.75 272.55 519.75 272.15 519.75 271.8 519.75 271.4 519.75 271.05 519.75 270.65 519.75 270.3 519.75 269.9 519.75 269.55 519.75 269.15 519.75 268.8 519.75 268.4 519.75 268.05 519.75 267.65 519.75 267.3 519.75 266.9 519.75 266.55 519.75 266.15 519.75 265.8 519.75 265.4 519.75 265.05 519.75 264.65 519.75 264.3 519.75 263.9 519.75 263.55 519.75 263.15 519.75 262.8 519.75 262.4 519.75 262.05 519.75 261.65 519.75 261.3 519.75 260.9 519.75 260.55 519.75 260.15 519.75 259.8 519.75 259.4 519.75 259.05 519.75 258.65 519.75 258.3 519.75 257.9 519.75 257.55 519.75 257.15 519.75 256.8 519.75 256.4 519.75 256.05 519.75 255.65 519.75 255.3 519.75 254.9 519.75 254.55 519.75 254.15 519.75 253.8 519.75 253.4 519.75 253.05 519.75 252.65 519.75 252.3 519.75 251.9 519.75 251.55 519.75 251.15 519.75 250.8 519.75 250.4 519.75 250.05 519.75 249.65 519.75 249.3 519.75 248.9 519.75 248.55 519.75 248.15 519.75 247.8 519.75 247.4 519.75 247.05 519.75 246.65 519.75 246.3 519.75 245.9 519.75 245.55 519.75 245.15 519.75 244.8 519.75 244.4 519.75 244.05 519.75 243.65 519.75 243.3 519.75 242.9 519.75 242.55 519.75 242.15 519.75 241.8 519.75 241.4 519.75 241.05 519.75 240.65 519.75 240.3 519.75 239.9 519.75 239.55 519.75 239.15 519.75 238.8 519.75 238.4 519.75 238.05 519.75 237.65 519.75 237.3 519.75 236.9 519.75 236.55 519.75 236.15 519.75 235.8 519.75 235.4 519.75 235.05 519.75 234.65 519.75 234.3 519.75 233.9 519.75 233.55 519.75 233.15 519.75 232.8 519.75 232.4 519.75 232.05 519.75 231.65 519.75 231.3 519.75 230.9 519.75 230.55 519.75 230.15 519.75 229.8 519.75 229.4 519.75 229.05 519.75 228.65 519.75 228.3 519.75 227.9 519.75 227.55 519.75 227.15 519.75 226.8 519.75 226.4 519.75 226.05 519.75 225.65 519.75 225.3 519.75 224.9 519.75 224.55 519.75 224.15 519.75 223.8 519.75 223.4 519.75 223.05 519.75 222.65 519.75 222.3 519.75 221.9 519.75 221.55 519.75 221.15 519.75 220.8 519.75 220.4 519.75 220.05 519.75 219.65 519.75 219.3 519.75 218.9 519.75 218.55 519.75 218.15 519.75 217.8 519.75 217.4 519.75 217.05 519.75 216.65 519.75 216.3 519.75 215.9 519.75 215.55 519.75 215.15 519.75 214.8 519.75 214.4 519.75 214.05 519.75 213.65 519.75 213.3 519.75 212.9 519.75 212.55 519.75 212.15 519.75 211.8 519.75 211.4 519.75 211.05 519.75 210.65 519.75 210.3 519.75 209.9 519.75 209.55 519.75 209.15 519.75 208.8 519.75 208.4 519.75 208.05 519.75 207.65 519.75 207.3 519.75 206.9 519.75 206.55 519.75 206.15 519.75 205.8 519.75 205.4 519.75 205.05 519.75 204.65 519.75 204.3 519.75 203.9 519.75 203.55 519.75 203.15 519.75 202.8 519.75 202.4 519.75 202.05 519.75 201.65 519.75 201.3 519.75 200.9 519.75 200.55 519.75 200.15 519.75 199.8 519.75 199.4 519.75 199.05 519.75 198.65 519.75 198.3 519.75 197.9 519.75 197.55 519.75 197.15 519.75 196.8 519.75 196.4 519.75 196.05 519.75 195.65 519.75 195.3 519.75 194.9 519.75 194.55 519.75 194.15 519.75 193.8 519.75 193.4 519.75 193.05 519.75 192.65 519.75 192.3 519.75 191.9 519.75 191.55 519.75 191.15 519.75 190.8 519.75 190.4 519.75 190.05 519.75 189.65 519.75 189.3 519.75 188.9 519.75 188.55 519.75 188.15 519.75 187.8 519.75 187.4 519.75 187.05 519.75 186.65 519.75 186.3 519.75 185.9 519.75 185.55 519.75 185.15 519.75 184.8 519.75 184.4 519.75 184.05 519.75 183.65 519.75 183.3 519.75 182.9 519.75 182.55 519.75 182.15 519.75 181.8 519.75 181.4 519.75 181.05 519.75 180.65 519.75 180.3 519.75 179.9 519.75 179.55 519.75 179.15 519.75 178.8 519.75 178.4 519.75 178.05 519.75 177.65 519.75 177.3 519.75 176.9 519.75 176.55 519.75 176.15 519.75 175.8 519.75 175.4 519.75 175.05 519.75 174.65 519.75 174.3 519.75 173.9 519.75 173.55 519.75 173.15 519.75 172.8 519.75 172.4 519.75 172.05 519.75 171.65 519.75 171.3 519.75 170.9 519.75 170.55 519.75 170.15 519.75 169.8 519.75 169.4 519.75 169.05 519.75 168.65 519.75 168.3 519.75 167.9 519.75 167.55 519.75 167.15 519.75 166.8 519.75 166.4 519.75 166.05 519.75 165.65 519.75 165.3 519.75 164.9 519.75 164.55 519.75 164.15 519.75 163.8 519.75 163.4 519.75 163.05 519.75 162.65 519.75 162.3 519.75 161.9 519.75 161.55 519.75 161.15 519.75 160.8 519.75 160.4 519.75 160.05 519.75 159.65 519.75 159.3 519.75 158.9 519.75 158.55 519.75 158.15 519.75 157.8 519.75 157.4 519.75 157.05 519.75 156.65 519.75 156.3 519.75 155.9 519.75 155.55 519.75 155.15 519.75 154.8 519.75 154.4 519.75 154.05 519.75 153.65 519.75 153.3 519.75 152.9 519.75 152.55 519.75 152.15 519.75 151.8 519.75 151.4 519.75 151.05 519.75 150.65 519.75 150.3 519.75 149.9 519.75 149.55 519.75 149.15 519.75 148.8 519.75 148.4 519.75 148.05 519.75 147.65 519.75 147.3 519.75 146.9 519.75 146.55 519.75 146.15 519.75 145.8 519.75 145.4 519.75 145.05 519.75 144.65 519.75 144.3 519.75 143.9 519.75 143.55 519.75 143.15 519.75 142.8 519.75 142.4 519.75 142.05 519.75 141.65 519.75 141.3 519.75 140.9 519.75 140.55 519.75 140.15 519.75 139.8 519.75 139.4 519.75 139.05 519.75 138.65 519.75 138.3 519.75 137.9 519.75 137.55 519.75 137.15 519.75 136.8 519.75 136.4 519.75 136.05 519.75 135.65 519.75 135.3 519.75 134.9 519.75 134.55 519.75 134.15 519.75 133.8 519.75 133.4 519.75 133.05 519.75 132.65 519.75 132.3 519.75 131.9 519.75 131.55 519.75 131.15 519.75 130.8 519.75 130.4 519.75 130.05 519.75 129.65 519.75 129.3 519.75 128.9 519.75 128.55 519.75 128.15 519.75 127.8 519.75 127.4 519.75 127.05 519.75 126.65 519.75 126.3 519.75 125.9 519.75 125.55 519.75 125.15 519.75 124.8 519.75 124.4 519.75 124.05 519.75 123.65 519.75 123.3 519.75 122.9 519.75 122.55 519.75 122.15 519.75 121.8 519.75 121.4 519.75 121.05 519.75 120.65 519.75 120.3 519.75 119.9 519.75 119.55 519.75 119.15 519.75 118.8 519.75 118.4 519.75 118.05 519.75 117.65 519.75 117.3 519.75 116.9 519.75 116.55 519.75 116.15 519.75 115.8 519.75 115.4 519.75 115.05 519.75 114.65 519.75 114.3 519.75 113.9 519.75 113.55 519.75 113.15 519.75 112.8 519.75 112.4 519.75 112.05 519.75 111.65 519.75 111.3 519.75 110.9 519.75 110.55 519.75 110.15 519.75 109.8 519.75 109.4 519.75 109.05 519.75 108.65 519.75 108.3 519.75 107.9 519.75 107.55 519.75 107.15 519.75 106.8 519.75 106.4 519.75 106.05 519.75 105.65 519.75 105.3 519.75 104.9 519.75 104.55 519.75 104.15 519.75 103.8 519.75 103.4 519.75 103.05 519.75 102.65 519.75 102.3 519.75 101.9 519.75 101.55 519.75 101.15 519.75 100.8 519.75 100.4 519.75 100.05 519.75 99.65 519.75 99.3 519.75 98.9 519.75 98.55 519.75 98.15 519.75 97.8 519.75 97.4 519.75 97.05 519.75 96.65 519.75 96.3 519.75 95.9 519.75 95.55 519.75 95.15 519.75 94.8 519.75 94.4 519.75 94.05 519.75 93.65 519.75 93.3 519.75 92.9 519.75 92.55 519.75 92.15 519.75 91.8 519.75 91.4 519.75 91.05 519.75 90.65 519.75 90.3 519.75 89.9 519.75 89.55 519.75 89.15 519.75 88.8 519.75 88.4 519.75 88.05 519.75 87.65 519.75 87.3 519.75 86.9 519.75 86.55 519.75 86.15 519.75 85.8 519.75 85.4 519.75 85.05 519.75 84.65 519.75 84.3 519.75 83.9 519.75 83.55 519.75 83.15 519.75 82.8 519.75 82.4 519.75 82.05 519.75 81.65 519.75 81.3 519.75 80.9 519.75 80.55 519.75 80.15 519.75 79.8 519.75 79.4 519.75 79.05 519.75 78.65 519.75 78.3 519.75 77.9 519.75 77.55 519.75 77.15 519.75 76.8 519.75 76.4 519.75 76.05 519.75 75.65 519.75 75.3 519.75 74.9 519.75 74.55 519.75 74.15 519.75 73.8 519.75 73.4 519.75 73.05 519.75 72.65 519.75 72.3 519.75 71.9 519.75 71.55 519.75 71.15 519.75 70.8 519.75 70.4 519.75 70.05 519.75 69.65 519.75 69.3 519.75 68.9 519.75 68.55 519.75 68.15 519.75 67.8 519.75 67.4 519.75 67.05 519.75 66.65 519.75 66.3 519.75 65.9 519.75 65.55 519.65 65.15 519.5 64.8 519.5 64.4 519.5 64.05 519.5 63.65 519.5 63.3 519.4 62.9 519.25 62.55 519.25 62.15 519.25 61.8 519.15 61.4 519 61.05 518.9 60.65 518.75 60.3 518.5 59.9 518.25 59.55 518.15 59.15 518 58.8 517.75 58.4 517.5 58.05
M 518.25 355.25
Q 517.5 354.9 516.75 354.5 515.9 354.25 515 354 513.9 353.9 512.75 353.75 295.75 353.75 78.8 353.75 78.8 353.9 78.8 354 77.65 354 76.55 354 75.65 354.25 74.8 354.5 73.9 354.9 73.05 355.25 72.4 355.65 71.8 356 71.4 356.4 71.05 356.75 70.65 357.15 70.3 357.5 69.9 357.9 69.55 358.25 69.3 358.65 69.05 359 68.8 359.4 68.55 359.75 68.3 360.15 68.05 360.5 67.9 360.9 67.8 361.25 67.65 361.65 67.55 362 67.4 362.4 67.3 362.75 67.15 363.15 67.05 363.5 67.05 363.9 67.05 364.25 67.05 364.65 67.05 365 66.9 365.4 66.8 365.75 66.9 366.15 67.05 366.5 67.05 366.9 67.05 367.25 67.05 367.65 67.05 368 67.15 368.4 67.3 368.75 67.4 369.15 67.55 369.5 67.65 369.9 67.8 370.25 67.9 370.65 68.05 371 68.3 371.4 68.55 371.75 68.8 372.15 69.05 372.5 69.3 372.9 69.55 373.25 69.9 373.65 70.3 374 70.65 374.4 71.05 374.75 71.4 375.15 71.8 375.5 72.4 375.9 73.05 376.25 73.9 376.65 74.8 377 75.65 377.25 76.55 377.5 77.65 377.65 78.8 377.75 295.75 377.75 512.75 377.75 513.9 377.65 515 377.5 515.9 377.25 516.75 377 517.5 376.65 518.25 376.25 518.9 375.9 519.5 375.5 520 375.15 520.5 374.75 520.9 374.4 521.25 374 521.65 373.65 522 373.25 522.25 372.9 522.5 372.5 522.75 372.15 523 371.75 523.15 371.4 523.25 371 523.5 370.65 523.75 370.25 523.9 369.9 524 369.5 524.15 369.15 524.25 368.75 524.25 368.4 524.25 368 524.4 367.65 524.5 367.25 524.5 366.9 524.5 366.5 524.5 366.15 524.5 365.75 524.5 365.4 524.5 365 524.5 364.65 524.5 364.25 524.4 363.9 524.25 363.5 524.25 363.15 524.25 362.75 524.15 362.4 524 362 523.9 361.65 523.75 361.25 523.5 360.9 523.25 360.5 523.15 360.15 523 359.75 522.75 359.4 522.5 359 522.25 358.65 522 358.25 521.65 357.9 521.25 357.5 520.9 357.15 520.5 356.75 520 356.4 519.5 356 518.9 355.65 518.25 355.25
M 39.55 55.05
Q 39.05 55.15 38.55 55.3 37.8 55.55 37.05 55.8 36.3 56.15 35.55 56.55 35.05 56.9 34.55 57.3 34.15 57.65 33.8 58.05 33.4 58.4 33.05 58.8 32.65 59.15 32.3 59.55 32.05 59.9 31.8 60.3 31.55 60.65 31.3 61.05 31.05 61.4 30.8 61.8 30.65 62.15 30.55 62.55 30.4 62.9 30.3 63.3 30.3 63.65 30.3 64.05 30.15 64.4 30.05 64.8 30.05 65.15 30.05 65.55 30.05 65.9 30.05 66.3 29.9 66.65 29.8 67.05 29.8 67.4 29.8 67.8 29.8 68.15 29.8 68.55 29.8 68.9 29.8 69.3 29.8 69.65 29.8 70.05 29.65 70.4 29.55 70.8 29.4 71.15 29.3 71.55 29.3 71.9 29.3 72.3 29.15 72.65 29.05 73.05 29.05 73.4 29.05 73.8 29.05 74.15 29.05 74.55 29.05 74.9 29.05 75.3 28.9 75.65 28.8 76.05 28.8 76.4 28.8 76.8 28.9 77.15 29.05 77.55 29.05 77.9 29.05 78.3 29.05 78.65 29.05 79.05 29.15 79.4 29.3 79.8 29.3 80.15 29.3 80.55 29.4 80.9 29.55 81.3 29.55 81.65 29.55 82.05 29.65 82.4 29.8 82.8 29.8 83.15 29.8 83.55 29.8 83.9 29.8 84.3 29.8 84.65 29.8 85.05 29.8 85.4 29.8 85.8 29.8 86.15 29.8 86.55 29.8 86.9 29.8 87.3 29.8 87.65 29.8 88.05 29.8 88.4 29.8 88.8 29.8 89.15 29.8 89.55 29.8 89.9 29.8 90.3 29.8 90.65 29.8 91.05 29.8 91.4 29.8 91.8 29.8 92.15 29.8 92.55 29.8 92.9 29.8 93.3 29.8 93.65 29.8 94.05 29.8 94.4 29.8 94.8 29.8 95.15 29.8 95.55 29.8 95.9 29.8 96.3 29.8 96.65 29.8 97.05 29.8 97.4 29.8 97.8 29.8 98.15 29.8 98.55 29.8 98.9 29.8 99.3 29.8 99.65 29.8 100.05 29.8 100.4 29.8 100.8 29.8 101.15 29.8 101.55 29.8 101.9 29.8 102.3 29.8 102.65 29.8 103.05 29.8 103.4 29.8 103.8 29.8 104.15 29.8 104.55 29.8 104.9 29.8 105.3 29.8 105.65 29.8 106.05 29.8 106.4 29.8 106.8 29.8 107.15 29.8 107.55 29.8 107.9 29.8 108.3 29.8 108.65 29.8 109.05 29.8 109.4 29.8 109.8 29.8 110.15 29.8 110.55 29.8 110.9 29.8 111.3 29.8 111.65 29.8 112.05 29.8 112.4 29.8 112.8 29.8 113.15 29.8 113.55 29.8 113.9 29.8 114.3 29.8 114.65 29.8 115.05 29.8 115.4 29.8 115.8 29.8 116.15 29.8 116.55 29.8 116.9 29.8 117.3 29.8 117.65 29.8 118.05 29.8 118.4 29.8 118.8 29.8 119.15 29.8 119.55 29.8 119.9 29.8 120.3 29.8 120.65 29.8 121.05 29.8 121.4 29.8 121.8 29.8 122.15 29.8 122.55 29.8 122.9 29.8 123.3 29.8 123.65 29.8 124.05 29.8 124.4 29.8 124.8 29.8 125.15 29.8 125.55 29.8 125.9 29.8 126.3 29.8 126.65 29.8 127.05 29.8 127.4 29.8 127.8 29.8 128.15 29.8 128.55 29.8 128.9 29.8 129.3 29.8 129.65 29.8 130.05 29.8 130.4 29.8 130.8 29.8 131.15 29.8 131.55 29.8 131.9 29.8 132.3 29.8 132.65 29.8 133.05 29.8 133.4 29.8 133.8 29.8 134.15 29.8 134.55 29.8 134.9 29.8 135.3 29.8 135.65 29.8 136.05 29.8 136.4 29.8 136.8 29.8 137.15 29.8 137.55 29.8 137.9 29.8 138.3 29.8 138.65 29.8 139.05 29.8 139.4 29.8 139.8 29.8 140.15 29.8 140.55 29.8 140.9 29.8 141.3 29.8 141.65 29.8 142.05 29.8 142.4 29.8 142.8 29.8 143.15 29.8 143.55 29.8 143.9 29.8 144.3 29.8 144.65 29.8 145.05 29.8 145.4 29.8 145.8 29.8 146.15 29.8 146.55 29.8 146.9 29.8 147.3 29.8 147.65 29.8 148.05 29.8 148.4 29.8 148.8 29.8 149.15 29.8 149.55 29.8 149.9 29.8 150.3 29.8 150.65 29.8 151.05 29.8 151.4 29.8 151.8 29.8 152.15 29.8 152.55 29.8 152.9 29.8 153.3 29.8 153.65 29.8 154.05 29.8 154.4 29.8 154.8 29.8 155.15 29.8 155.55 29.8 155.9 29.8 156.3 29.8 156.65 29.8 157.05 29.8 157.4 29.8 157.8 29.8 158.15 29.8 158.55 29.8 158.9 29.8 159.3 29.8 159.65 29.8 160.05 29.8 160.4 29.8 160.8 29.8 161.15 29.8 161.55 29.8 161.9 29.8 162.3 29.8 162.65 29.8 163.05 29.8 163.4 29.8 163.8 29.8 164.15 29.8 164.55 29.8 164.9 29.8 165.3 29.8 165.65 29.8 166.05 29.8 166.4 29.8 166.8 29.8 167.15 29.8 167.55 29.8 167.9 29.8 168.3 29.8 168.65 29.8 169.05 29.8 169.4 29.8 169.8 29.8 170.15 29.8 170.55 29.8 170.9 29.8 171.3 29.8 171.65 29.8 172.05 29.8 172.4 29.8 172.8 29.8 173.15 29.8 173.55 29.8 173.9 29.8 174.3 29.8 174.65 29.8 175.05 29.8 175.4 29.8 175.8 29.8 176.15 29.8 176.55 29.8 176.9 29.8 177.3 29.8 177.65 29.8 178.05 29.8 178.4 29.8 178.8 29.8 179.15 29.8 179.55 29.8 179.9 29.8 180.3 29.8 180.65 29.8 181.05 29.8 181.4 29.8 181.8 29.8 182.15 29.8 182.55 29.8 182.9 29.8 183.3 29.8 183.65 29.8 184.05 29.8 184.4 29.8 184.8 29.8 185.15 29.8 185.55 29.8 185.9 29.8 186.3 29.8 186.65 29.8 187.05 29.8 187.4 29.8 187.8 29.8 188.15 29.8 188.55 29.8 188.9 29.8 189.3 29.8 189.65 29.8 190.05 29.8 190.4 29.8 190.8 29.8 191.15 29.8 191.55 29.8 191.9 29.8 192.3 29.8 192.65 29.8 193.05 29.8 193.4 29.8 193.8 29.8 194.15 29.8 194.55 29.8 194.9 29.8 195.3 29.8 195.65 29.8 196.05 29.8 196.4 29.8 196.8 29.8 197.15 29.8 197.55 29.8 197.9 29.8 198.3 29.8 198.65 29.8 199.05 29.8 199.4 29.8 199.8 29.8 200.15 29.8 200.55 29.8 200.9 29.8 201.3 29.8 201.65 29.8 202.05 29.8 202.4 29.8 202.8 29.8 203.15 29.8 203.55 29.8 203.9 29.8 204.3 29.8 204.65 29.8 205.05 29.8 205.4 29.8 205.8 29.8 206.15 29.8 206.55 29.8 206.9 29.8 207.3 29.8 207.65 29.8 208.05 29.8 208.4 29.8 208.8 29.8 209.15 29.8 209.55 29.8 209.9 29.8 210.3 29.8 210.65 29.8 211.05 29.8 211.4 29.8 211.8 29.8 212.15 29.8 212.55 29.8 212.9 29.8 213.3 29.8 213.65 29.8 214.05 29.8 214.4 29.8 214.8 29.8 215.15 29.8 215.55 29.8 215.9 29.8 216.3 29.8 216.65 29.8 217.05 29.8 217.4 29.8 217.8 29.8 218.15 29.8 218.55 29.8 218.9 29.8 219.3 29.8 219.65 29.8 220.05 29.8 220.4 29.8 220.8 29.8 221.15 29.8 221.55 29.8 221.9 29.8 222.3 29.8 222.65 29.8 223.05 29.8 223.4 29.8 223.8 29.8 224.15 29.8 224.55 29.8 224.9 29.8 225.3 29.8 225.65 29.8 226.05 29.8 226.4 29.8 226.8 29.8 227.15 29.8 227.55 29.8 227.9 29.8 228.3 29.8 228.65 29.8 229.05 29.8 229.4 29.8 229.8 29.8 230.15 29.8 230.55 29.8 230.9 29.8 231.3 29.8 231.65 29.8 232.05 29.8 232.4 29.8 232.8 29.8 233.15 29.8 233.55 29.8 233.9 29.8 234.3 29.8 234.65 29.8 235.05 29.8 235.4 29.8 235.8 29.8 236.15 29.8 236.55 29.8 236.9 29.8 237.3 29.8 237.65 29.8 238.05 29.8 238.4 29.8 238.8 29.8 239.15 29.8 239.55 29.8 239.9 29.8 240.3 29.8 240.65 29.8 241.05 29.8 241.4 29.8 241.8 29.8 242.15 29.8 242.55 29.8 242.9 29.8 243.3 29.8 243.65 29.8 244.05 29.8 244.4 29.8 244.8 29.8 245.15 29.8 245.55 29.8 245.9 29.8 246.3 29.8 246.65 29.8 247.05 29.8 247.4 29.8 247.8 29.8 248.15 29.8 248.55 29.8 248.9 29.8 249.3 29.8 249.65 29.8 250.05 29.8 250.4 29.8 250.8 29.8 251.15 29.8 251.55 29.8 251.9 29.8 252.3 29.8 252.65 29.8 253.05 29.8 253.4 29.8 253.8 29.8 254.15 29.8 254.55 29.8 254.9 29.8 255.3 29.8 255.65 29.8 256.05 29.8 256.4 29.8 256.8 29.8 257.15 29.8 257.55 29.8 257.9 29.8 258.3 29.8 258.65 29.8 259.05 29.8 259.4 29.8 259.8 29.8 260.15 29.8 260.55 29.8 260.9 29.8 261.3 29.8 261.65 29.8 262.05 29.8 262.4 29.8 262.8 29.8 263.15 29.8 263.55 29.8 263.9 29.8 264.3 29.8 264.65 29.8 265.05 29.8 265.4 29.8 265.8 29.8 266.15 29.8 266.55 29.8 266.9 29.8 267.3 29.8 267.65 29.8 268.05 29.8 268.4 29.8 268.8 29.8 269.15 29.8 269.55 29.8 269.9 29.8 270.3 29.8 270.65 29.8 271.05 29.8 271.4 29.8 271.8 29.8 272.15 29.8 272.55 29.8 272.9 29.8 273.3 29.8 273.65 29.8 274.05 29.8 274.4 29.8 274.8 29.8 275.15 29.8 275.55 29.8 275.9 29.8 276.3 29.8 276.65 29.8 277.05 29.8 277.4 29.8 277.8 29.8 278.15 29.8 278.55 29.8 278.9 29.8 279.3 29.8 279.65 29.8 280.05 29.8 280.4 29.8 280.8 29.8 281.15 29.8 281.55 29.8 281.9 29.8 282.3 29.8 282.65 29.8 283.05 29.8 283.4 29.8 283.8 29.8 284.15 29.8 284.55 29.8 284.9 29.8 285.3 29.8 285.65 29.8 286.05 29.8 286.4 29.8 286.8 29.8 287.15 29.8 287.55 29.8 287.9 29.8 288.3 29.8 288.65 29.8 289.05 29.8 289.4 29.8 289.8 29.8 290.15 29.8 290.55 29.8 290.9 29.8 291.3 29.8 291.65 29.8 292.05 29.8 292.4 29.8 292.8 29.8 293.15 29.8 293.55 29.8 293.9 29.8 294.3 29.8 294.65 29.8 295.05 29.8 295.4 29.8 295.8 29.8 296.15 29.8 296.55 29.8 296.9 29.8 297.3 29.8 297.65 29.8 298.05 29.8 298.4 29.8 298.8 29.8 299.15 29.8 299.55 29.8 299.9 29.8 300.3 29.8 300.65 29.8 301.05 29.8 301.4 29.8 301.8 29.8 302.15 29.8 302.55 29.8 302.9 29.8 303.3 29.8 303.65 29.8 304.05 29.8 304.4 29.8 304.8 29.8 305.15 29.8 305.55 29.8 305.9 29.8 306.3 29.8 306.65 29.8 307.05 29.8 307.4 29.8 307.8 29.8 308.15 29.8 308.55 29.8 308.9 29.8 309.3 29.8 309.65 29.8 310.05 29.8 310.4 29.8 310.8 29.8 311.15 29.8 311.55 29.8 311.9 29.8 312.3 29.8 312.65 29.8 313.05 29.8 313.4 29.8 313.8 29.8 314.15 29.8 314.55 29.8 314.9 29.8 315.3 29.8 315.65 29.8 316.05 29.8 316.4 29.8 316.8 29.8 317.15 29.8 317.55 29.8 317.9 29.8 318.3 29.8 318.65 29.8 319.05 29.8 319.4 29.8 319.8 29.8 320.15 29.8 320.55 29.8 320.9 29.8 321.3 29.8 321.65 29.8 322.05 29.8 322.4 29.8 322.8 29.8 323.15 29.8 323.55 29.8 323.9 29.8 324.3 29.8 324.65 29.8 325.05 29.8 325.4 29.8 325.8 29.8 326.15 29.8 326.55 29.8 326.9 29.8 327.3 29.8 327.65 29.8 328.05 29.8 328.4 29.8 328.8 29.8 329.15 29.8 329.55 29.8 329.9 29.8 330.3 29.8 330.65 29.8 331.05 29.8 331.4 29.8 331.8 29.8 332.15 29.8 332.55 29.8 332.9 29.8 333.3 29.8 333.65 29.8 334.05 29.8 334.4 29.8 334.8 29.8 335.15 29.8 335.55 29.8 335.9 29.8 336.25 29.8 336.65 29.8 337 29.8 337.4 29.8 337.75 29.8 338.15 29.8 338.5 29.8 338.9 29.8 339.25 29.8 339.65 29.8 340 29.8 340.4 29.8 340.75 29.8 341.15 29.8 341.5 29.8 341.9 29.8 342.25 29.8 342.65 29.8 343 29.8 343.4 29.8 343.75 29.8 344.15 29.8 344.5 29.8 344.9 29.8 345.25 29.8 345.65 29.8 346 29.8 346.4 29.8 346.75 29.8 347.15 29.8 347.5 29.8 347.9 29.8 348.25 29.8 348.65 29.8 349 29.8 349.4 29.8 349.75 29.8 350.15 29.8 350.5 29.8 350.9 29.8 351.25 29.8 351.65 29.8 352 29.8 352.4 29.8 352.75 29.8 353.15 29.8 353.5 29.8 353.9 29.8 354.25 29.8 354.65 29.8 355 29.8 355.4 29.8 355.75 29.8 356.15 29.8 356.5 29.8 356.9 29.8 357.25 29.8 357.65 29.8 358 29.8 358.4 29.8 358.75 29.9 359.15 30.05 359.5 30.05 359.9 30.05 360.25 30.05 360.65 30.05 361 30.15 361.4 30.3 361.75 30.4 362.15 30.55 362.5 30.65 362.9 30.8 363.25 30.9 363.65 31.05 364 31.3 364.4 31.55 364.75 31.8 365.15 32.05 365.5 32.3 365.9 32.55 366.25 32.9 366.65 33.3 367 33.65 367.4 34.05 367.75 34.4 368.15 34.8 368.5 35.4 368.9 36.05 369.25 36.9 369.65 37.8 370 38.65 370.25 39.55 370.5 40.65 370.65 41.8 370.75 42.9 370.65 44.05 370.5 44.55 370.4 45.05 370.25 45.65 370 46.3 369.75 47.05 369.4 47.8 369 48.3 368.65 48.8 368.25 49.3 367.9 49.8 367.5 50.15 367.15 50.55 366.75 50.8 366.4 51.05 366 51.3 365.65 51.55 365.25 51.8 364.9 52.05 364.5 52.3 364.15 52.55 363.75 52.65 363.4 52.8 363 52.9 362.65 53.05 362.25 53.15 361.9 53.3 361.5 53.4 361.15 53.55 360.75 53.55 360.4 53.55 360 53.55 359.65 53.55 359.25 53.65 358.9 53.8 358.5 53.8 358.15 53.8 357.75 53.8 357.4 53.8 357 53.8 356.65 53.8 356.25 53.8 355.9 53.8 355.5 53.8 355.15 53.8 354.75 53.8 354.4 53.8 354 53.8 353.65 53.8 353.25 53.8 352.9 53.8 352.5 53.8 352.15 53.8 351.75 53.8 351.4 53.8 351 53.8 350.65 53.8 350.25 53.8 349.9 53.8 349.5 53.8 349.15 53.8 348.75 53.8 348.4 53.8 348 53.8 347.65 53.8 347.25 53.8 346.9 53.8 346.5 53.8 346.15 53.8 345.75 53.8 345.4 53.8 345 53.8 344.65 53.8 344.25 53.8 343.9 53.8 343.5 53.8 343.15 53.8 342.75 53.8 342.4 53.8 342 53.8 341.65 53.8 341.25 53.8 340.9 53.8 340.5 53.8 340.15 53.8 339.75 53.8 339.4 53.8 339 53.8 338.65 53.8 338.25 53.8 337.9 53.8 337.5 53.8 337.15 53.8 336.75 53.8 336.4 53.8 336.05 53.8 335.65 53.8 335.3 53.8 334.9 53.8 334.55 53.8 334.15 53.8 333.8 53.8 333.4 53.8 333.05 53.8 332.65 53.8 332.3 53.8 331.9 53.8 331.55 53.8 331.15 53.8 330.8 53.8 330.4 53.8 330.05 53.8 329.65 53.8 329.3 53.8 328.9 53.8 328.55 53.8 328.15 53.8 327.8 53.8 327.4 53.8 327.05 53.8 326.65 53.8 326.3 53.8 325.9 53.8 325.55 53.8 325.15 53.8 324.8 53.8 324.4 53.8 324.05 53.8 323.65 53.8 323.3 53.8 322.9 53.8 322.55 53.8 322.15 53.8 321.8 53.8 321.4 53.8 321.05 53.8 320.65 53.8 320.3 53.8 319.9 53.8 319.55 53.8 319.15 53.8 318.8 53.8 318.4 53.8 318.05 53.8 317.65 53.8 317.3 53.8 316.9 53.8 316.55 53.8 316.15 53.8 315.8 53.8 315.4 53.8 315.05 53.8 314.65 53.8 314.3 53.8 313.9 53.8 313.55 53.8 313.15 53.8 312.8 53.8 312.4 53.8 312.05 53.8 311.65 53.8 311.3 53.8 310.9 53.8 310.55 53.8 310.15 53.8 309.8 53.8 309.4 53.8 309.05 53.8 308.65 53.8 308.3 53.8 307.9 53.8 307.55 53.8 307.15 53.8 306.8 53.8 306.4 53.8 306.05 53.8 305.65 53.8 305.3 53.8 304.9 53.8 304.55 53.8 304.15 53.8 303.8 53.8 303.4 53.8 303.05 53.8 302.65 53.8 302.3 53.8 301.9 53.8 301.55 53.8 301.15 53.8 300.8 53.8 300.4 53.8 300.05 53.8 299.65 53.8 299.3 53.8 298.9 53.8 298.55 53.8 298.15 53.8 297.8 53.8 297.4 53.8 297.05 53.8 296.65 53.8 296.3 53.8 295.9 53.8 295.55 53.8 295.15 53.8 294.8 53.8 294.4 53.8 294.05 53.8 293.65 53.8 293.3 53.8 292.9 53.8 292.55 53.8 292.15 53.8 291.8 53.8 291.4 53.8 291.05 53.8 290.65 53.8 290.3 53.8 289.9 53.8 289.55 53.8 289.15 53.8 288.8 53.8 288.4 53.8 288.05 53.8 287.65 53.8 287.3 53.8 286.9 53.8 286.55 53.8 286.15 53.8 285.8 53.8 285.4 53.8 285.05 53.8 284.65 53.8 284.3 53.8 283.9 53.8 283.55 53.8 283.15 53.8 282.8 53.8 282.4 53.8 282.05 53.8 281.65 53.8 281.3 53.8 280.9 53.8 280.55 53.8 280.15 53.8 279.8 53.8 279.4 53.8 279.05 53.8 278.65 53.8 278.3 53.8 277.9 53.8 277.55 53.8 277.15 53.8 276.8 53.8 276.4 53.8 276.05 53.8 275.65 53.8 275.3 53.8 274.9 53.8 274.55 53.8 274.15 53.8 273.8 53.8 273.4 53.8 273.05 53.8 272.65 53.8 272.3 53.8 271.9 53.8 271.55 53.8 271.15 53.8 270.8 53.8 270.4 53.8 270.05 53.8 269.65 53.8 269.3 53.8 268.9 53.8 268.55 53.8 268.15 53.8 267.8 53.8 267.4 53.8 267.05 53.8 266.65 53.8 266.3 53.8 265.9 53.8 265.55 53.8 265.15 53.8 264.8 53.8 264.4 53.8 264.05 53.8 263.65 53.8 263.3 53.8 262.9 53.8 262.55 53.8 262.15 53.8 261.8 53.8 261.4 53.8 261.05 53.8 260.65 53.8 260.3 53.8 259.9 53.8 259.55 53.8 259.15 53.8 258.8 53.8 258.4 53.8 258.05 53.8 257.65 53.8 257.3 53.8 256.9 53.8 256.55 53.8 256.15 53.8 255.8 53.8 255.4 53.8 255.05 53.8 254.65 53.8 254.3 53.8 253.9 53.8 253.55 53.8 253.15 53.8 252.8 53.8 252.4 53.8 252.05 53.8 251.65 53.8 251.3 53.8 250.9 53.8 250.55 53.8 250.15 53.8 249.8 53.8 249.4 53.8 249.05 53.8 248.65 53.8 248.3 53.8 247.9 53.8 247.55 53.8 247.15 53.8 246.8 53.8 246.4 53.8 246.05 53.8 245.65 53.8 245.3 53.8 244.9 53.8 244.55 53.8 244.15 53.8 243.8 53.8 243.4 53.8 243.05 53.8 242.65 53.8 242.3 53.8 241.9 53.8 241.55 53.8 241.15 53.8 240.8 53.8 240.4 53.8 240.05 53.8 239.65 53.8 239.3 53.8 238.9 53.8 238.55 53.8 238.15 53.8 237.8 53.8 237.4 53.8 237.05 53.8 236.65 53.8 236.3 53.8 235.9 53.8 235.55 53.8 235.15 53.8 234.8 53.8 234.4 53.8 234.05 53.8 233.65 53.8 233.3 53.8 232.9 53.8 232.55 53.8 232.15 53.8 231.8 53.8 231.4 53.8 231.05 53.8 230.65 53.8 230.3 53.8 229.9 53.8 229.55 53.8 229.15 53.8 228.8 53.8 228.4 53.8 228.05 53.8 227.65 53.8 227.3 53.8 226.9 53.8 226.55 53.8 226.15 53.8 225.8 53.8 225.4 53.8 225.05 53.8 224.65 53.8 224.3 53.8 223.9 53.8 223.55 53.8 223.15 53.8 222.8 53.8 222.4 53.8 222.05 53.8 221.65 53.8 221.3 53.8 220.9 53.8 220.55 53.8 220.15 53.8 219.8 53.8 219.4 53.8 219.05 53.8 218.65 53.8 218.3 53.8 217.9 53.8 217.55 53.8 217.15 53.8 216.8 53.8 216.4 53.8 216.05 53.8 215.65 53.8 215.3 53.8 214.9 53.8 214.55 53.8 214.15 53.8 213.8 53.8 213.4 53.8 213.05 53.8 212.65 53.8 212.3 53.8 211.9 53.8 211.55 53.8 211.15 53.8 210.8 53.8 210.4 53.8 210.05 53.8 209.65 53.8 209.3 53.8 208.9 53.8 208.55 53.8 208.15 53.8 207.8 53.8 207.4 53.8 207.05 53.8 206.65 53.8 206.3 53.8 205.9 53.8 205.55 53.8 205.15 53.8 204.8 53.8 204.4 53.8 204.05 53.8 203.65 53.8 203.3 53.8 202.9 53.8 202.55 53.8 202.15 53.8 201.8 53.8 201.4 53.8 201.05 53.8 200.65 53.8 200.3 53.8 199.9 53.8 199.55 53.8 199.15 53.8 198.8 53.8 198.4 53.8 198.05 53.8 197.65 53.8 197.3 53.8 196.9 53.8 196.55 53.8 196.15 53.8 195.8 53.8 195.4 53.8 195.05 53.8 194.65 53.8 194.3 53.8 193.9 53.8 193.55 53.8 193.15 53.8 192.8 53.8 192.4 53.8 192.05 53.8 191.65 53.8 191.3 53.8 190.9 53.8 190.55 53.8 190.15 53.8 189.8 53.8 189.4 53.8 189.05 53.8 188.65 53.8 188.3 53.8 187.9 53.8 187.55 53.8 187.15 53.8 186.8 53.8 186.4 53.8 186.05 53.8 185.65 53.8 185.3 53.8 184.9 53.8 184.55 53.8 184.15 53.8 183.8 53.8 183.4 53.8 183.05 53.8 182.65 53.8 182.3 53.8 181.9 53.8 181.55 53.8 181.15 53.8 180.8 53.8 180.4 53.8 180.05 53.8 179.65 53.8 179.3 53.8 178.9 53.8 178.55 53.8 178.15 53.8 177.8 53.8 177.4 53.8 177.05 53.8 176.65 53.8 176.3 53.8 175.9 53.8 175.55 53.8 175.15 53.8 174.8 53.8 174.4 53.8 174.05 53.8 173.65 53.8 173.3 53.8 172.9 53.8 172.55 53.8 172.15 53.8 171.8 53.8 171.4 53.8 171.05 53.8 170.65 53.8 170.3 53.8 169.9 53.8 169.55 53.8 169.15 53.8 168.8 53.8 168.4 53.8 168.05 53.8 167.65 53.8 167.3 53.8 166.9 53.8 166.55 53.8 166.15 53.8 165.8 53.8 165.4 53.8 165.05 53.8 164.65 53.8 164.3 53.8 163.9 53.8 163.55 53.8 163.15 53.8 162.8 53.8 162.4 53.8 162.05 53.8 161.65 53.8 161.3 53.8 160.9 53.8 160.55 53.8 160.15 53.8 159.8 53.8 159.4 53.8 159.05 53.8 158.65 53.8 158.3 53.8 157.9 53.8 157.55 53.8 157.15 53.8 156.8 53.8 156.4 53.8 156.05 53.8 155.65 53.8 155.3 53.8 154.9 53.8 154.55 53.8 154.15 53.8 153.8 53.8 153.4 53.8 153.05 53.8 152.65 53.8 152.3 53.8 151.9 53.8 151.55 53.8 151.15 53.8 150.8 53.8 150.4 53.8 150.05 53.8 149.65 53.8 149.3 53.8 148.9 53.8 148.55 53.8 148.15 53.8 147.8 53.8 147.4 53.8 147.05 53.8 146.65 53.8 146.3 53.8 145.9 53.8 145.55 53.8 145.15 53.8 144.8 53.8 144.4 53.8 144.05 53.8 143.65 53.8 143.3 53.8 142.9 53.8 142.55 53.8 142.15 53.8 141.8 53.8 141.4 53.8 141.05 53.8 140.65 53.8 140.3 53.8 139.9 53.8 139.55 53.8 139.15 53.8 138.8 53.8 138.4 53.8 138.05 53.8 137.65 53.8 137.3 53.8 136.9 53.8 136.55 53.8 136.15 53.8 135.8 53.8 135.4 53.8 135.05 53.8 134.65 53.8 134.3 53.8 133.9 53.8 133.55 53.8 133.15 53.8 132.8 53.8 132.4 53.8 132.05 53.8 131.65 53.8 131.3 53.8 130.9 53.8 130.55 53.8 130.15 53.8 129.8 53.8 129.4 53.8 129.05 53.8 128.65 53.8 128.3 53.8 127.9 53.8 127.55 53.8 127.15 53.8 126.8 53.8 126.4 53.8 126.05 53.8 125.65 53.8 125.3 53.8 124.9 53.8 124.55 53.8 124.15 53.8 123.8 53.8 123.4 53.8 123.05 53.8 122.65 53.8 122.3 53.8 121.9 53.8 121.55 53.8 121.15 53.8 120.8 53.8 120.4 53.8 120.05 53.8 119.65 53.8 119.3 53.8 118.9 53.8 118.55 53.8 118.15 53.8 117.8 53.8 117.4 53.8 117.05 53.8 116.65 53.8 116.3 53.8 115.9 53.8 115.55 53.8 115.15 53.8 114.8 53.8 114.4 53.8 114.05 53.8 113.65 53.8 113.3 53.8 112.9 53.8 112.55 53.8 112.15 53.8 111.8 53.8 111.4 53.8 111.05 53.8 110.65 53.8 110.3 53.8 109.9 53.8 109.55 53.8 109.15 53.8 108.8 53.8 108.4 53.8 108.05 53.8 107.65 53.8 107.3 53.8 106.9 53.8 106.55 53.8 106.15 53.8 105.8 53.8 105.4 53.8 105.05 53.8 104.65 53.8 104.3 53.8 103.9 53.8 103.55 53.8 103.15 53.8 102.8 53.8 102.4 53.8 102.05 53.8 101.65 53.8 101.3 53.8 100.9 53.8 100.55 53.8 100.15 53.8 99.8 53.8 99.4 53.8 99.05 53.8 98.65 53.8 98.3 53.8 97.9 53.8 97.55 53.8 97.15 53.8 96.8 53.8 96.4 53.8 96.05 53.8 95.65 53.8 95.3 53.8 94.9 53.8 94.55 53.8 94.15 53.8 93.8 53.8 93.4 53.8 93.05 53.8 92.65 53.8 92.3 53.8 91.9 53.8 91.55 53.8 91.15 53.8 90.8 53.8 90.4 53.8 90.05 53.8 89.65 53.8 89.3 53.8 88.9 53.8 88.55 53.8 88.15 53.8 87.8 53.8 87.4 53.8 87.05 53.8 86.65 53.8 86.3 53.8 85.9 53.8 85.55 53.8 85.15 53.8 84.8 53.8 84.4 53.8 84.05 53.8 83.65 53.8 83.3 53.65 82.9 53.55 82.55 53.55 82.15 53.55 81.8 53.55 81.4 53.55 81.05 53.55 80.65 53.55 80.3 53.4 79.9 53.3 79.55 53.3 79.15 53.3 78.8 53.15 78.4 53.05 78.05 53.05 77.65 53.05 77.3 53.05 76.9 53.05 76.55 53.05 76.15 53.05 75.8 53.05 75.4 53.05 75.05 53.15 74.65 53.3 74.3 53.3 73.9 53.3 73.55 53.4 73.15 53.55 72.8 53.55 72.4 53.55 72.05 53.55 71.65 53.55 71.3 53.65 70.9 53.8 70.55 53.8 70.15 53.8 69.8 53.8 69.4 53.8 69.05 53.8 68.65 53.8 68.3 53.8 67.9 53.8 67.55 53.65 67.15 53.55 66.8 53.55 66.4 53.55 66.05 53.55 65.65 53.55 65.3 53.4 64.9 53.3 64.55 53.3 64.15 53.3 63.8 53.15 63.4 53.05 63.05 52.9 62.65 52.8 62.3 52.55 61.9 52.3 61.55 52.15 61.15 52.05 60.8 51.8 60.4 51.55 60.05 51.3 59.65 51.05 59.3 50.65 58.9 50.3 58.55 49.9 58.15 49.55 57.8 49.05 57.4 48.55 57.05 47.9 56.65 47.3 56.3 46.55 55.9 45.8 55.55 44.9 55.3 44.05 55.05 42.9 54.9 41.8 54.8 41.8 54.9 41.8 55.05 40.65 55.05 39.55 55.05
M 508.75 19.55
Q 507.9 19.3 507 19.05 505.9 18.9 504.75 18.8 278.25 18.8 51.8 18.8 51.8 18.9 51.8 19.05 50.65 19.05 49.55 19.05 48.65 19.3 47.8 19.55 46.9 19.9 46.05 20.3 45.4 20.65 44.8 21.05 44.4 21.4 44.05 21.8 43.65 22.15 43.3 22.55 42.9 22.9 42.55 23.3 42.3 23.65 42.05 24.05 41.8 24.4 41.55 24.8 41.3 25.15 41.05 25.55 40.9 25.9 40.8 26.3 40.65 26.65 40.55 27.05 40.4 27.4 40.3 27.8 40.15 28.15 40.05 28.55 40.05 28.9 40.05 29.3 40.05 29.65 40.05 30.05 39.9 30.4 39.8 30.8 39.9 31.15 40.05 31.55 40.05 31.9 40.05 32.3 40.05 32.65 40.05 33.05 40.15 33.4 40.3 33.8 40.4 34.15 40.55 34.55 40.65 34.9 40.8 35.3 40.9 35.65 41.05 36.05 41.3 36.4 41.55 36.8 41.8 37.15 42.05 37.55 42.3 37.9 42.55 38.3 42.9 38.65 43.3 39.05 43.65 39.4 44.05 39.8 44.4 40.15 44.8 40.55 45.4 40.9 46.05 41.3 46.9 41.65 47.8 42.05 48.65 42.3 49.55 42.55 50.65 42.65 51.8 42.8 278.25 42.8 504.75 42.8 505.9 42.65 507 42.55 507.9 42.3 508.75 42.05 509.5 41.65 510.25 41.3 510.9 40.9 511.5 40.55 512 40.15 512.5 39.8 512.9 39.4 513.25 39.05 513.65 38.65 514 38.3 514.25 37.9 514.5 37.55 514.75 37.15 515 36.8 515.15 36.4 515.25 36.05 515.5 35.65 515.75 35.3 515.9 34.9 516 34.55 516.15 34.15 516.25 33.8 516.25 33.4 516.25 33.05 516.4 32.65 516.5 32.3 516.5 31.9 516.5 31.55 516.5 31.15 516.5 30.8 516.5 30.4 516.5 30.05 516.5 29.65 516.5 29.3 516.4 28.9 516.25 28.55 516.25 28.15 516.25 27.8 516.15 27.4 516 27.05 515.9 26.65 515.75 26.3 515.5 25.9 515.25 25.55 515.15 25.15 515 24.8 514.75 24.4 514.5 24.05 514.25 23.65 514 23.3 513.65 22.9 513.25 22.55 512.9 22.15 512.5 21.8 512 21.4 511.5 21.05 510.9 20.65 510.25 20.3 509.5 19.9 508.75 19.55 Z"/>
</g>
</defs>

<g transform="matrix( 1, 0, 0, 1, 0,0) ">
<use xlink:href="#Layer0_0_FILL"/>
</g>
</svg>
